<?xml version="1.0" encoding="UTF-8" standalone="no"?>
<!-- Created with Inkscape (http://www.inkscape.org/) -->

<svg
   width="210mm"
   height="297mm"
   viewBox="0 0 210 297"
   version="1.1"
   id="svg5"
   sodipodi:docname="logo.svg"
   inkscape:version="1.1.2 (0a00cf5339, 2022-02-04)"
   xmlns:inkscape="http://www.inkscape.org/namespaces/inkscape"
   xmlns:sodipodi="http://sodipodi.sourceforge.net/DTD/sodipodi-0.dtd"
   xmlns="http://www.w3.org/2000/svg"
   xmlns:svg="http://www.w3.org/2000/svg">
  <sodipodi:namedview
     id="namedview7"
     pagecolor="#ffffff"
     bordercolor="#666666"
     borderopacity="1.0"
     inkscape:pageshadow="2"
     inkscape:pageopacity="0.0"
     inkscape:pagecheckerboard="0"
     inkscape:document-units="mm"
     showgrid="false"
     inkscape:zoom="0.5"
     inkscape:cx="-98"
     inkscape:cy="433"
     inkscape:window-width="3370"
     inkscape:window-height="1376"
     inkscape:window-x="1990"
     inkscape:window-y="417"
     inkscape:window-maximized="1"
     inkscape:current-layer="layer1" />
  <defs
     id="defs2" />
  <g
     inkscape:label="Layer 1"
     inkscape:groupmode="layer"
     id="layer1">
    <text
       xml:space="preserve"
       style="font-style:normal;font-weight:normal;font-size:10.5833px;line-height:1.25;font-family:sans-serif;fill:#000000;fill-opacity:1;stroke:none;stroke-width:0.264583"
       x="18.053396"
       y="59.04002"
       id="text3901"><tspan
         sodipodi:role="line"
         id="tspan3899"
         style="stroke-width:0.264583"
         x="18.053396"
         y="59.04002" /></text>
    <path
       style="fill:#ffd42a;stroke:#00ffff;stroke-width:0.00390625;stroke-opacity:0"
       d=""
       id="path22900"
       transform="scale(0.26458333)" />
    <path
       style="fill:#ffd42a;stroke:#00ffff;stroke-width:0.00390625;stroke-opacity:0"
       d=""
       id="path22939"
       transform="scale(0.26458333)" />
    <path
       style="fill:#ffd42a;stroke:#00ffff;stroke-width:0.00390625;stroke-opacity:0"
       d=""
       id="path23093"
       transform="scale(0.26458333)" />
    <path
       style="fill:#ffd42a;stroke:#00ffff;stroke-width:0.00390625;stroke-opacity:0"
       d=""
       id="path23132"
       transform="scale(0.26458333)" />
    <path
       style="fill:#ffd42a;stroke:#00ffff;stroke-width:0.00390625;stroke-opacity:0"
       d=""
       id="path23210"
       transform="scale(0.26458333)" />
    <path
       style="fill:#ffd42a;stroke:#00ffff;stroke-width:0.00390625;stroke-opacity:0"
       d=""
       id="path23249"
       transform="scale(0.26458333)" />
    <path
       style="fill:#ffd42a;stroke:#00ffff;stroke-width:0.00390625;stroke-opacity:0"
       d=""
       id="path23483"
       transform="scale(0.26458333)" />
    <path
       style="fill:#ffd42a;stroke:#00ffff;stroke-width:0.00390625;stroke-opacity:0"
       d=""
       id="path23670"
       transform="scale(0.26458333)" />
    <path
       style="fill:#ff0000;fill-opacity:1;stroke:#00ffff;stroke-width:0.0078125;stroke-opacity:0"
       d=""
       id="path26593"
       transform="scale(0.26458333)" />
    <g
       id="g33227"
       transform="matrix(20.14438,0,0,20.14438,-406.61291,-1103.8122)">
      <path
         style="fill:#ff0000;stroke:#00ffff;stroke-width:0.0883883;stroke-opacity:0"
         d="m 101.69501,255.5253 c -1.37644,-0.36038 -2.624626,-1.41005 -3.251377,-2.73427 l -0.332567,-0.70266 -5.488751,-0.002 -5.488751,-0.002 -0.167376,0.37565 c -0.219158,0.49187 -1.458998,1.73006 -2.040496,2.03778 -2.506767,1.32656 -5.690512,0.2907 -6.909136,-2.24795 -0.570305,-1.18807 -0.682878,-2.24651 -0.369324,-3.47249 0.09616,-0.37601 0.285095,-0.8879 0.419844,-1.13755 0.310256,-0.5748 1.153689,-1.48338 1.714134,-1.84653 l 0.431215,-0.27942 v -11.02201 -11.02201 l -0.58686,-0.3431 c -1.083218,-0.63331 -2.025245,-1.91516 -2.323691,-3.16194 -0.13295,-0.55541 -0.13295,-1.76189 0,-2.31729 0.445429,-1.86082 2.032705,-3.393 3.927017,-3.79071 0.779467,-0.16366 1.252124,-0.16379 2.032932,-5.7e-4 2.307045,0.48224 4.02167,2.59263 4.02167,4.94992 0,1.7929 -1.027065,3.54571 -2.585359,4.41223 l -0.596621,0.33176 v 10.8138 10.8138 l 0.670672,0.32258 c 1.116174,0.53686 2.100536,1.6395 2.515422,2.81768 l 0.1591,0.4518 5.420568,0.0179 5.420567,0.0179 0.265165,-0.54822 c 0.556173,-1.14988 1.961993,-2.22865 3.314563,-2.54347 2.03415,-0.47346 4.2191,0.43358 5.39763,2.24072 0.46531,0.7135 0.70274,1.46521 0.75999,2.40617 0.20793,3.41746 -3.00198,6.03669 -6.33018,5.16531 z m 1.97427,-2.84212 c 0.52425,-0.15489 1.22391,-0.87702 1.37513,-1.41928 0.37208,-1.33424 -0.5256,-2.61267 -1.89582,-2.69992 -0.3063,-0.0195 -0.70462,0.0135 -0.88608,0.0734 -0.43536,0.14368 -1.00188,0.66385 -1.20231,1.10393 -0.19366,0.42521 -0.21753,1.33848 -0.0457,1.7485 0.42006,1.0024 1.56272,1.51606 2.65479,1.1934 z M 82.843562,252.1088 c -0.132817,-0.0202 -0.371466,-0.0206 -0.530331,-9e-4 -0.158864,0.0197 -0.0502,0.0362 0.241486,0.0367 0.291681,5.3e-4 0.421661,-0.0156 0.288845,-0.0358 z m 1.434727,-3.33458 c 0,-0.0214 -0.03977,-0.0636 -0.08839,-0.0936 -0.04861,-0.0301 -0.08839,-0.0125 -0.08839,0.039 0,0.0515 0.03977,0.0936 0.08839,0.0936 0.04861,0 0.08839,-0.0175 0.08839,-0.039 z m -1.090087,-28.0535 c 1.610561,-0.82165 1.521512,-3.17064 -0.14735,-3.88689 -0.450272,-0.19325 -1.300541,-0.16756 -1.727126,0.0522 -0.785616,0.40468 -1.190209,1.07947 -1.18886,1.98281 0.0018,1.23499 0.983341,2.15071 2.215278,2.06682 0.270894,-0.0185 0.65252,-0.11516 0.848058,-0.21491 z"
         id="path22333"
         transform="scale(0.26458333)" />
      <path
         style="fill:#ff0000;fill-opacity:1;stroke:#00ffff;stroke-width:0.0078125;stroke-opacity:0"
         d="m 82.310547,252.13532 c -0.02686,-0.002 -0.04883,-0.006 -0.04883,-0.01 0,-0.0283 0.500638,-0.0366 0.597358,-0.01 0.02078,0.006 0.02157,0.007 0.0078,0.0128 -0.01616,0.007 -0.472813,0.0124 -0.556342,0.007 z"
         id="path26554"
         transform="scale(0.26458333)" />
      <rect
         style="fill:#ff0000;fill-opacity:1;stroke:#00ffff;stroke-width:0.264583;stroke-opacity:0"
         id="rect30700"
         width="0.33069098"
         height="0.22119664"
         x="22.123825"
         y="65.733131" />
      <rect
         style="fill:#ff0000;fill-opacity:1;stroke:#00ffff;stroke-width:0.264583;stroke-opacity:0"
         id="rect30702"
         width="0.35845768"
         height="0.14184789"
         x="21.609531"
         y="66.640556" />
    </g>
    <g
       id="g33335"
       transform="matrix(20.14438,0,0,20.14438,-592.39192,-1069.6744)">
      <path
         style="fill:#ffd42a;stroke:#00ffff;stroke-width:0.0233861;stroke-opacity:0"
         d="m 33.437482,65.849044 c -0.46775,-0.122631 -0.828673,-0.462325 -0.969588,-0.912553 -0.05938,-0.189735 -0.06417,-0.533564 -0.01022,-0.734758 0.08179,-0.305052 0.30888,-0.609077 0.585377,-0.783699 l 0.151858,-0.09591 v -0.838726 -0.838727 l -0.126146,-0.09524 c -0.331379,-0.250192 -0.51432,-0.625911 -0.51432,-1.056296 0,-0.430384 0.182941,-0.806103 0.51432,-1.056296 l 0.126146,-0.09524 v -0.978032 -0.978035 l -0.140881,-0.07509 c -0.459233,-0.244769 -0.743055,-0.800528 -0.676652,-1.324972 0.06946,-0.548611 0.482165,-1.015474 1.007033,-1.139198 0.469015,-0.110556 0.917179,0.01794 1.260532,0.361442 0.413126,0.413295 0.514444,1.012764 0.257929,1.526095 l -0.0672,0.134485 0.682176,6.4e-5 c 0.911161,9e-5 1.261078,0.04793 1.706343,0.233294 0.74105,0.308501 1.138192,0.961305 1.085127,1.783691 l -0.0132,0.204628 0.08618,5.3e-4 c 0.146237,7.93e-4 0.394144,0.06368 0.559646,0.142216 0.217861,0.103375 0.503574,0.391128 0.61086,0.615227 0.253251,0.528979 0.153236,1.108274 -0.263266,1.524882 -0.175842,0.175887 -0.344419,0.276367 -0.5872,0.349998 -0.07717,0.02342 -0.14219,0.04322 -0.144479,0.04403 -0.0024,7.93e-4 0.01169,0.07502 0.03105,0.164912 0.0473,0.219564 0.04719,0.743325 -2.12e-4,0.958567 -0.08561,0.388797 -0.219599,0.655193 -0.455099,0.904835 -0.359598,0.381196 -0.833237,0.607785 -1.481712,0.708853 -0.154747,0.02413 -0.476996,0.04256 -0.897776,0.05137 l -0.656385,0.01376 -0.02726,0.187055 c -0.111364,0.764074 -0.892722,1.287044 -1.632978,1.092964 z m 0.565937,-0.790887 c 0.527066,-0.270986 0.338056,-1.062956 -0.253684,-1.062956 -0.32453,0 -0.559511,0.238596 -0.557943,0.566529 0.0012,0.243565 0.139139,0.442566 0.364728,0.52605 0.12232,0.04527 0.32772,0.03165 0.446899,-0.02962 z m 2.255678,-1.361948 c 0.59223,-0.07234 0.955233,-0.283141 1.142455,-0.663445 0.102476,-0.208156 0.142277,-0.418015 0.142759,-0.7527 7.94e-4,-0.613484 -0.201737,-0.999871 -0.635344,-1.211591 C 36.591178,60.913306 36.30005,60.8678 35.623216,60.867504 l -0.436487,-1.93e-4 -0.09384,0.192936 c -0.158942,0.32679 -0.410791,0.560973 -0.733902,0.682424 l -0.146787,0.05517 -0.0062,0.747511 -0.0062,0.747509 0.09971,0.03845 c 0.118031,0.04551 0.402682,0.254368 0.454529,0.333497 l 0.03643,0.0556 h 0.635194 c 0.349357,0 0.724372,-0.0109 0.833364,-0.02421 z m 2.36051,-2.765375 c 0.288067,-0.148246 0.383571,-0.544589 0.196588,-0.815845 -0.179943,-0.26104 -0.556604,-0.320895 -0.808816,-0.128527 -0.220723,0.168352 -0.286972,0.502574 -0.145105,0.732036 0.07708,0.124672 0.219644,0.236575 0.340135,0.266981 0.118674,0.02995 0.298622,0.0064 0.417198,-0.05464 z m -4.325555,-0.04576 c 0,-0.0098 -0.02105,-0.01775 -0.04677,-0.01775 -0.03125,0 -0.04677,0.01558 -0.04677,0.04697 0,0.04112 0.0058,0.04333 0.04677,0.01775 0.02573,-0.01606 0.04677,-0.0372 0.04677,-0.04697 z m 1.81242,-0.860748 c 0.413068,-0.04728 0.658548,-0.141676 0.869569,-0.334388 0.221872,-0.202621 0.331428,-0.531953 0.304396,-0.915019 -0.04073,-0.577115 -0.329962,-0.889656 -0.953138,-1.029949 -0.141785,-0.03192 -0.355124,-0.04146 -1.15075,-0.05146 l -0.976697,-0.01228 0.0062,0.753747 0.0062,0.753745 0.140548,0.05089 c 0.301271,0.109069 0.564315,0.343291 0.721527,0.642466 l 0.08761,0.166725 0.367055,-1.85e-4 c 0.20188,-1.19e-4 0.46177,-0.01103 0.57753,-0.02429 z m -2.143763,-3.38062 c 0.137111,-0.06833 0.219901,-0.163142 0.272419,-0.311994 0.07545,-0.213847 0.02846,-0.409289 -0.138235,-0.574955 -0.183411,-0.182277 -0.408053,-0.224566 -0.634003,-0.119349 -0.205086,0.0955 -0.319434,0.276604 -0.319434,0.505915 0,0.430422 0.431171,0.693772 0.819253,0.500383 z"
         id="path22372" />
      <rect
         style="fill:#ffd42a;fill-opacity:1;stroke:#00ffff;stroke-width:0.264583;stroke-opacity:0"
         id="rect33251"
         width="0.80449706"
         height="0.62836015"
         x="33.799255"
         y="60.492691" />
    </g>
  </g>
</svg>
